<svg width="35" height="36" viewBox="0 0 35 36" fill="none" xmlns="http://www.w3.org/2000/svg">
<path d="M17.5002 3.41666C15.9531 3.41666 14.4693 4.03124 13.3754 5.1252C12.2814 6.21916 11.6668 7.70289 11.6668 9.24999C11.6668 10.7971 12.2814 12.2808 13.3754 13.3748C14.4693 14.4687 15.9531 15.0833 17.5002 15.0833C19.0473 15.0833 20.531 14.4687 21.625 13.3748C22.7189 12.2808 23.3335 10.7971 23.3335 9.24999C23.3335 7.70289 22.7189 6.21916 21.625 5.1252C20.531 4.03124 19.0473 3.41666 17.5002 3.41666ZM14.5835 9.24999C14.5835 8.47644 14.8908 7.73458 15.4378 7.18759C15.9847 6.64061 16.7266 6.33332 17.5002 6.33332C18.2737 6.33332 19.0156 6.64061 19.5626 7.18759C20.1095 7.73458 20.4168 8.47644 20.4168 9.24999C20.4168 10.0235 20.1095 10.7654 19.5626 11.3124C19.0156 11.8594 18.2737 12.1667 17.5002 12.1667C16.7266 12.1667 15.9847 11.8594 15.4378 11.3124C14.8908 10.7654 14.5835 10.0235 14.5835 9.24999ZM24.7918 18H10.2085C9.04817 18 7.93538 18.4609 7.1149 19.2814C6.29443 20.1019 5.8335 21.2147 5.8335 22.375C5.8335 25.63 7.17225 28.2375 9.3685 30.0021C11.5297 31.7375 14.4289 32.5833 17.5002 32.5833C20.5714 32.5833 23.4706 31.7375 25.6318 30.0021C27.8252 28.2375 29.1668 25.63 29.1668 22.375C29.1668 21.2147 28.7059 20.1019 27.8854 19.2814C27.065 18.4609 25.9522 18 24.7918 18ZM10.2085 20.9167H24.7918C25.1786 20.9167 25.5495 21.0703 25.823 21.3438C26.0965 21.6173 26.2502 21.9882 26.2502 22.375C26.2502 24.7579 25.3022 26.5254 23.806 27.7271C22.2718 28.9579 20.0668 29.6667 17.5002 29.6667C14.9335 29.6667 12.7285 28.9579 11.1943 27.7271C9.69808 26.5254 8.75016 24.7579 8.75016 22.375C8.75016 21.9882 8.90381 21.6173 9.1773 21.3438C9.45079 21.0703 9.82172 20.9167 10.2085 20.9167Z" fill="#DE7047" stroke="#DE7047"/>
</svg>
