<svg width="35" height="36" viewBox="0 0 35 36" fill="none" xmlns="http://www.w3.org/2000/svg">
<path d="M31.0834 10.8985C31.0748 10.8561 31.0748 10.8123 31.0834 10.7698C31.0768 10.7326 31.0768 10.6945 31.0834 10.6572V10.5124L30.9869 10.2711C30.9473 10.2056 30.8986 10.146 30.8421 10.0942L30.6974 9.96548H30.6169L24.2786 5.95979L18.2942 2.25976C18.1547 2.15156 17.9966 2.06978 17.8277 2.01846H17.699C17.5552 1.99385 17.4084 1.99385 17.2646 2.01846H17.1038C16.9166 2.05899 16.7374 2.12962 16.5729 2.22759L4.55582 9.70809L4.41103 9.8207L4.26625 9.94939L4.10538 10.062L4.02494 10.1585L3.92842 10.3998V10.6411C3.91302 10.7478 3.91302 10.8562 3.92842 10.9629V25.0069C3.92787 25.2803 3.99701 25.5493 4.1293 25.7886C4.26159 26.0278 4.45268 26.2294 4.68451 26.3743L16.7498 33.8387L16.9911 33.9353H17.1198C17.392 34.0216 17.6842 34.0216 17.9564 33.9353H18.0851L18.3264 33.8387L30.2952 26.4869C30.527 26.342 30.7181 26.1404 30.8504 25.9012C30.9827 25.6619 31.0518 25.3929 31.0513 25.1195V11.0755C31.0513 11.0755 31.0834 10.9629 31.0834 10.8985ZM17.4255 5.50936L20.289 7.27894L11.2963 12.8451L8.41672 11.0755L17.4255 5.50936ZM15.8168 29.64L6.96888 24.2347V13.9551L15.8168 19.4247V29.64ZM17.4255 16.5934L14.3529 14.7434L23.3455 9.16113L26.4343 11.0755L17.4255 16.5934ZM27.8821 24.1865L19.0342 29.6883V19.4247L27.8821 13.9551V24.1865Z" fill="#DE7047"/>
</svg>
