<svg width="35" height="25" viewBox="0 0 35 25" fill="none" xmlns="http://www.w3.org/2000/svg">
<path d="M18.2897 9.34207C20.898 7.72841 17.2602 4.64003 19.8686 3.02637M23.0264 9.34207C25.6348 7.72841 21.997 4.64003 24.6054 3.02637M27.7632 9.34207C30.3716 7.72841 26.7338 4.64003 29.3421 3.02637M13.5529 14.0789L10.395 10.921M31.799 14.0789H14.2539C13.8671 14.0789 13.5529 14.472 13.5529 14.9567C13.5529 18.8314 16.0665 21.9735 19.1675 21.9735H26.8853C29.9863 21.9735 32.5 18.8314 32.5 14.9567C32.5 14.472 32.1858 14.0789 31.799 14.0789ZM3.08144 3.60741C3.85511 2.83374 5.11194 2.83374 5.88719 3.60741L9.81398 7.5342C9.99821 7.71843 10.1443 7.93714 10.2441 8.17785C10.3438 8.41855 10.3951 8.67654 10.3951 8.93708C10.3951 9.19762 10.3438 9.45561 10.2441 9.69631C10.1443 9.93702 9.99821 10.1557 9.81398 10.34C9.62975 10.5242 9.41104 10.6703 9.17034 10.77C8.92963 10.8697 8.67164 10.921 8.4111 10.921C8.15057 10.921 7.89258 10.8697 7.65187 10.77C7.41117 10.6703 7.19246 10.5242 7.00823 10.34L3.08144 6.41317C2.89711 6.22899 2.75088 6.0103 2.65112 5.76959C2.55135 5.52887 2.5 5.27086 2.5 5.01029C2.5 4.74972 2.55135 4.4917 2.65112 4.25099C2.75088 4.01028 2.89711 3.79158 3.08144 3.60741Z" stroke="#DE7047" stroke-width="3" stroke-linecap="round" stroke-linejoin="round"/>
</svg>
