<svg width="34" height="36" viewBox="0 0 34 36" fill="none" xmlns="http://www.w3.org/2000/svg">
<path fill-rule="evenodd" clip-rule="evenodd" d="M9.90952 2.685H23.8722C25.321 2.685 26.3183 2.685 27.1574 2.97562C27.9414 3.25296 28.651 3.70721 29.2311 4.30312C29.8112 4.89904 30.2462 5.62059 30.5024 6.4118C30.7816 7.26229 30.7802 8.27377 30.7802 9.7739V29.9294C30.7802 32.0179 28.3199 33.2601 26.7001 31.7771C26.6481 31.7274 26.579 31.6996 26.507 31.6996C26.4351 31.6996 26.366 31.7274 26.314 31.7771L25.6245 32.4068C24.3024 33.6177 22.2994 33.6177 20.9774 32.4068C20.7381 32.1834 20.4229 32.0591 20.0955 32.0591C19.7682 32.0591 19.453 32.1834 19.2137 32.4068C17.8917 33.6177 15.8886 33.6177 14.5666 32.4068C14.3273 32.1834 14.0121 32.0591 13.6848 32.0591C13.3574 32.0591 13.0422 32.1834 12.8029 32.4068C11.4809 33.6177 9.47786 33.6177 8.15581 32.4068L7.46772 31.7771C7.41569 31.727 7.34624 31.699 7.27398 31.699C7.20171 31.699 7.13226 31.727 7.08023 31.7771C5.46044 33.2587 3.00012 32.0179 3.00012 29.9294V9.77532C3.00012 8.27377 3.00012 7.26229 3.27792 6.4118C3.53408 5.62059 3.96909 4.89904 4.54919 4.30312C5.12929 3.70721 5.83889 3.25296 6.62293 2.97562C7.46345 2.68357 8.46068 2.685 9.90952 2.685ZM10.1161 4.82192C8.37663 4.82192 7.77687 4.83617 7.32384 4.9943C6.8507 5.16393 6.42294 5.44014 6.07363 5.80155C5.72433 6.16296 5.46285 6.59988 5.30943 7.07852C5.15129 7.56004 5.13847 8.19542 5.13847 9.97904V29.9294C5.13847 30.1003 5.22253 30.2029 5.32937 30.2528C5.37812 30.276 5.43247 30.2849 5.48608 30.2784C5.54373 30.2686 5.59695 30.2412 5.63851 30.2001C6.0843 29.7897 6.66806 29.5619 7.27398 29.5619C7.87989 29.5619 8.46366 29.7897 8.90944 30.2001L9.59753 30.8298C9.83681 31.0532 10.152 31.1774 10.4794 31.1774C10.8067 31.1774 11.1219 31.0532 11.3612 30.8298C11.9944 30.2464 12.8238 29.9225 13.6848 29.9225C14.5457 29.9225 15.3751 30.2464 16.0083 30.8298C16.2476 31.0532 16.5628 31.1774 16.8901 31.1774C17.2175 31.1774 17.5327 31.0532 17.772 30.8298C18.4051 30.2464 19.2346 29.9225 20.0955 29.9225C20.9565 29.9225 21.7859 30.2464 22.4191 30.8298C22.6584 31.0532 22.9735 31.1774 23.3009 31.1774C23.6283 31.1774 23.9435 31.0532 24.1828 30.8298L24.8709 30.2001C25.3166 29.7897 25.9004 29.5619 26.5063 29.5619C27.1122 29.5619 27.696 29.7897 28.1418 30.2001C28.203 30.2571 28.2557 30.2741 28.2956 30.2784C28.3488 30.2846 28.4026 30.2757 28.4509 30.2528C28.5578 30.2029 28.6432 30.0989 28.6432 29.9294V9.97904C28.6432 8.19542 28.629 7.56004 28.4723 7.07709C28.3184 6.59842 28.0564 6.16159 27.7066 5.80042C27.3568 5.43925 26.9285 5.16342 26.455 4.9943C26.0034 4.8376 25.4037 4.82335 23.6642 4.82335L10.1161 4.82192ZM8.70002 11.5889C8.70002 11.3055 8.81259 11.0337 9.01296 10.8333C9.21334 10.633 9.48511 10.5204 9.76848 10.5204H10.4808C10.7642 10.5204 11.0359 10.633 11.2363 10.8333C11.4367 11.0337 11.5493 11.3055 11.5493 11.5889C11.5493 11.8722 11.4367 12.144 11.2363 12.3444C11.0359 12.5448 10.7642 12.6573 10.4808 12.6573H9.76848C9.48511 12.6573 9.21334 12.5448 9.01296 12.3444C8.81259 12.144 8.70002 11.8722 8.70002 11.5889ZM13.6862 11.5889C13.6862 11.3055 13.7988 11.0337 13.9991 10.8333C14.1995 10.633 14.4713 10.5204 14.7546 10.5204H24.0147C24.298 10.5204 24.5698 10.633 24.7702 10.8333C24.9706 11.0337 25.0831 11.3055 25.0831 11.5889C25.0831 11.8722 24.9706 12.144 24.7702 12.3444C24.5698 12.5448 24.298 12.6573 24.0147 12.6573H14.7546C14.4713 12.6573 14.1995 12.5448 13.9991 12.3444C13.7988 12.144 13.6862 11.8722 13.6862 11.5889ZM8.70002 16.575C8.70002 16.2916 8.81259 16.0199 9.01296 15.8195C9.21334 15.6191 9.48511 15.5066 9.76848 15.5066H10.4808C10.7642 15.5066 11.0359 15.6191 11.2363 15.8195C11.4367 16.0199 11.5493 16.2916 11.5493 16.575C11.5493 16.8584 11.4367 17.1302 11.2363 17.3305C11.0359 17.5309 10.7642 17.6435 10.4808 17.6435H9.76848C9.48511 17.6435 9.21334 17.5309 9.01296 17.3305C8.81259 17.1302 8.70002 16.8584 8.70002 16.575ZM13.6862 16.575C13.6862 16.2916 13.7988 16.0199 13.9991 15.8195C14.1995 15.6191 14.4713 15.5066 14.7546 15.5066H24.0147C24.298 15.5066 24.5698 15.6191 24.7702 15.8195C24.9706 16.0199 25.0831 16.2916 25.0831 16.575C25.0831 16.8584 24.9706 17.1302 24.7702 17.3305C24.5698 17.5309 24.298 17.6435 24.0147 17.6435H14.7546C14.4713 17.6435 14.1995 17.5309 13.9991 17.3305C13.7988 17.1302 13.6862 16.8584 13.6862 16.575ZM8.70002 21.5612C8.70002 21.2778 8.81259 21.006 9.01296 20.8057C9.21334 20.6053 9.48511 20.4927 9.76848 20.4927H10.4808C10.7642 20.4927 11.0359 20.6053 11.2363 20.8057C11.4367 21.006 11.5493 21.2778 11.5493 21.5612C11.5493 21.8446 11.4367 22.1163 11.2363 22.3167C11.0359 22.5171 10.7642 22.6296 10.4808 22.6296H9.76848C9.48511 22.6296 9.21334 22.5171 9.01296 22.3167C8.81259 22.1163 8.70002 21.8446 8.70002 21.5612ZM13.6862 21.5612C13.6862 21.2778 13.7988 21.006 13.9991 20.8057C14.1995 20.6053 14.4713 20.4927 14.7546 20.4927H24.0147C24.298 20.4927 24.5698 20.6053 24.7702 20.8057C24.9706 21.006 25.0831 21.2778 25.0831 21.5612C25.0831 21.8446 24.9706 22.1163 24.7702 22.3167C24.5698 22.5171 24.298 22.6296 24.0147 22.6296H14.7546C14.4713 22.6296 14.1995 22.5171 13.9991 22.3167C13.7988 22.1163 13.6862 21.8446 13.6862 21.5612Z" fill="#DE7047"/>
<path d="M30.5024 6.4118C30.2462 5.62059 29.8112 4.89904 29.2311 4.30312C28.651 3.70721 27.9414 3.25296 27.1574 2.97562C26.3183 2.685 25.321 2.685 23.8722 2.685H9.90952C8.46068 2.685 7.46345 2.68357 6.62292 2.97562C5.83889 3.25296 5.12929 3.70721 4.54919 4.30312C3.96909 4.89904 3.53408 5.62059 3.27792 6.4118C3.00012 7.26229 3.00012 8.27377 3.00012 9.77532V29.9294C3.00012 32.0179 5.46044 33.2587 7.08023 31.7771C7.13226 31.727 7.20171 31.699 7.27398 31.699C7.34624 31.699 7.41569 31.727 7.46772 31.7771L8.15581 32.4068C9.47786 33.6177 11.4809 33.6177 12.8029 32.4068C13.0422 32.1834 13.3574 32.0591 13.6848 32.0591C14.0121 32.0591 14.3273 32.1834 14.5666 32.4068C15.8886 33.6177 17.8917 33.6177 19.2137 32.4068C19.453 32.1834 19.7682 32.0591 20.0955 32.0591C20.4229 32.0591 20.7381 32.1834 20.9774 32.4068C22.2994 33.6177 24.3024 33.6177 25.6245 32.4068L26.314 31.7771C26.366 31.7274 26.4351 31.6996 26.507 31.6996C26.579 31.6996 26.6481 31.7274 26.7001 31.7771C28.3199 33.2601 30.7802 32.0179 30.7802 29.9294V9.7739C30.7802 8.27377 30.7816 7.26229 30.5024 6.4118ZM30.5024 6.4118L29.4866 6.74516M10.1161 4.82192C8.37663 4.82192 7.77687 4.83617 7.32384 4.9943C6.8507 5.16394 6.42294 5.44014 6.07363 5.80155C5.72433 6.16296 5.46285 6.59988 5.30943 7.07852C5.15129 7.56004 5.13847 8.19542 5.13847 9.97904V29.9294C5.13847 30.1003 5.22253 30.2029 5.32937 30.2528C5.37812 30.276 5.43247 30.2849 5.48608 30.2784C5.54373 30.2686 5.59695 30.2412 5.63851 30.2001C6.0843 29.7897 6.66806 29.5619 7.27398 29.5619C7.87989 29.5619 8.46366 29.7897 8.90944 30.2001L9.59753 30.8297C9.83681 31.0532 10.152 31.1774 10.4794 31.1774C10.8067 31.1774 11.1219 31.0532 11.3612 30.8297C11.9944 30.2464 12.8238 29.9225 13.6848 29.9225C14.5457 29.9225 15.3751 30.2464 16.0083 30.8297C16.2476 31.0532 16.5628 31.1774 16.8901 31.1774C17.2175 31.1774 17.5327 31.0532 17.772 30.8297C18.4051 30.2464 19.2346 29.9225 20.0955 29.9225C20.9565 29.9225 21.7859 30.2464 22.4191 30.8297C22.6584 31.0532 22.9735 31.1774 23.3009 31.1774C23.6283 31.1774 23.9435 31.0532 24.1828 30.8297L24.8709 30.2001C25.3166 29.7897 25.9004 29.5619 26.5063 29.5619C27.1122 29.5619 27.696 29.7897 28.1418 30.2001C28.203 30.2571 28.2557 30.2741 28.2956 30.2784C28.3488 30.2846 28.4026 30.2757 28.4509 30.2528C28.5578 30.2029 28.6432 30.0989 28.6432 29.9294V9.97904C28.6432 8.19542 28.629 7.56004 28.4723 7.07709C28.3184 6.59842 28.0564 6.16159 27.7066 5.80042C27.3568 5.43925 26.9285 5.16342 26.455 4.9943C26.0034 4.8376 25.4037 4.82335 23.6642 4.82335L10.1161 4.82192ZM8.70002 11.5889C8.70002 11.3055 8.81259 11.0337 9.01296 10.8333C9.21334 10.633 9.48511 10.5204 9.76848 10.5204H10.4808C10.7642 10.5204 11.0359 10.633 11.2363 10.8333C11.4367 11.0337 11.5493 11.3055 11.5493 11.5889C11.5493 11.8722 11.4367 12.144 11.2363 12.3444C11.0359 12.5448 10.7642 12.6573 10.4808 12.6573H9.76848C9.48511 12.6573 9.21334 12.5448 9.01296 12.3444C8.81259 12.144 8.70002 11.8722 8.70002 11.5889ZM13.6862 11.5889C13.6862 11.3055 13.7988 11.0337 13.9991 10.8333C14.1995 10.633 14.4713 10.5204 14.7546 10.5204H24.0147C24.298 10.5204 24.5698 10.633 24.7702 10.8333C24.9706 11.0337 25.0831 11.3055 25.0831 11.5889C25.0831 11.8722 24.9706 12.144 24.7702 12.3444C24.5698 12.5448 24.298 12.6573 24.0147 12.6573H14.7546C14.4713 12.6573 14.1995 12.5448 13.9991 12.3444C13.7988 12.144 13.6862 11.8722 13.6862 11.5889ZM8.70002 16.575C8.70002 16.2916 8.81259 16.0199 9.01296 15.8195C9.21334 15.6191 9.48511 15.5066 9.76848 15.5066H10.4808C10.7642 15.5066 11.0359 15.6191 11.2363 15.8195C11.4367 16.0199 11.5493 16.2916 11.5493 16.575C11.5493 16.8584 11.4367 17.1302 11.2363 17.3305C11.0359 17.5309 10.7642 17.6435 10.4808 17.6435H9.76848C9.48511 17.6435 9.21334 17.5309 9.01296 17.3305C8.81259 17.1302 8.70002 16.8584 8.70002 16.575ZM13.6862 16.575C13.6862 16.2916 13.7988 16.0199 13.9991 15.8195C14.1995 15.6191 14.4713 15.5066 14.7546 15.5066H24.0147C24.298 15.5066 24.5698 15.6191 24.7702 15.8195C24.9706 16.0199 25.0831 16.2916 25.0831 16.575C25.0831 16.8584 24.9706 17.1302 24.7702 17.3305C24.5698 17.5309 24.298 17.6435 24.0147 17.6435H14.7546C14.4713 17.6435 14.1995 17.5309 13.9991 17.3305C13.7988 17.1302 13.6862 16.8584 13.6862 16.575ZM8.70002 21.5612C8.70002 21.2778 8.81259 21.006 9.01296 20.8057C9.21334 20.6053 9.48511 20.4927 9.76848 20.4927H10.4808C10.7642 20.4927 11.0359 20.6053 11.2363 20.8057C11.4367 21.006 11.5493 21.2778 11.5493 21.5612C11.5493 21.8446 11.4367 22.1163 11.2363 22.3167C11.0359 22.5171 10.7642 22.6296 10.4808 22.6296H9.76848C9.48511 22.6296 9.21334 22.5171 9.01296 22.3167C8.81259 22.1163 8.70002 21.8446 8.70002 21.5612ZM13.6862 21.5612C13.6862 21.2778 13.7988 21.006 13.9991 20.8057C14.1995 20.6053 14.4713 20.4927 14.7546 20.4927H24.0147C24.298 20.4927 24.5698 20.6053 24.7702 20.8057C24.9706 21.006 25.0831 21.2778 25.0831 21.5612C25.0831 21.8446 24.9706 22.1163 24.7702 22.3167C24.5698 22.5171 24.298 22.6296 24.0147 22.6296H14.7546C14.4713 22.6296 14.1995 22.5171 13.9991 22.3167C13.7988 22.1163 13.6862 21.8446 13.6862 21.5612Z" stroke="#DE7047"/>
</svg>
