<svg width="36" height="36" viewBox="0 0 36 36" fill="none" xmlns="http://www.w3.org/2000/svg">
<path d="M15.0833 3.61658C13.2583 3.61755 11.459 4.04666 9.82999 4.86942C8.20096 5.69217 6.78767 6.88562 5.70371 8.35384C4.61975 9.82206 3.89536 11.5241 3.58874 13.3232C3.28213 15.1222 3.40186 16.9681 3.9383 18.7125C4.47474 20.4569 5.41293 22.0511 6.67747 23.367C7.94201 24.6829 9.49762 25.6838 11.2193 26.2892C12.9409 26.8947 14.7806 27.0877 16.5905 26.853C18.4003 26.6182 20.1298 25.9621 21.64 24.9374L28.85 32.1416C29.0503 32.3565 29.2918 32.5289 29.5601 32.6484C29.8284 32.768 30.1181 32.8323 30.4118 32.8375C30.7055 32.8427 30.9973 32.7886 31.2697 32.6786C31.542 32.5686 31.7895 32.4048 31.9972 32.1971C32.2049 31.9894 32.3687 31.742 32.4787 31.4696C32.5887 31.1972 32.6427 30.9054 32.6376 30.6117C32.6324 30.318 32.5681 30.0283 32.4485 29.76C32.329 29.4917 32.1566 29.2502 31.9417 29.0499L24.7375 21.8399C25.9294 20.0858 26.6205 18.0399 26.7367 15.9224C26.8529 13.8048 26.3897 11.6957 25.3969 9.82167C24.4041 7.94767 22.9193 6.37972 21.1021 5.28642C19.2849 4.19311 17.2041 3.61581 15.0833 3.61658ZM7.79168 15.2832C7.79168 13.3494 8.5599 11.4947 9.92736 10.1273C11.2948 8.7598 13.1495 7.99158 15.0833 7.99158C17.0172 7.99158 18.8719 8.7598 20.2393 10.1273C21.6068 11.4947 22.375 13.3494 22.375 15.2832C22.375 17.2171 21.6068 19.0718 20.2393 20.4392C18.8719 21.8067 17.0172 22.5749 15.0833 22.5749C13.1495 22.5749 11.2948 21.8067 9.92736 20.4392C8.5599 19.0718 7.79168 17.2171 7.79168 15.2832Z" fill="#DE7047"/>
</svg>
