<svg width="30" height="31" viewBox="0 0 30 31" fill="none" xmlns="http://www.w3.org/2000/svg">
<g clip-path="url(#clip0_137_827)">
<path d="M4.6875 2.27502C4.19022 2.27502 3.71331 2.47257 3.36167 2.8242C3.01004 3.17583 2.8125 3.65274 2.8125 4.15002V6.02502C2.8125 6.52231 3.01004 6.99922 3.36167 7.35085C3.71331 7.70248 4.19022 7.90002 4.6875 7.90002H5.625V24.775C5.625 25.7696 6.02009 26.7234 6.72335 27.4267C7.42661 28.1299 8.38044 28.525 9.375 28.525H20.625C21.6196 28.525 22.5734 28.1299 23.2766 27.4267C23.9799 26.7234 24.375 25.7696 24.375 24.775V7.90002H25.3125C25.8098 7.90002 26.2867 7.70248 26.6383 7.35085C26.99 6.99922 27.1875 6.52231 27.1875 6.02502V4.15002C27.1875 3.65274 26.99 3.17583 26.6383 2.8242C26.2867 2.47257 25.8098 2.27502 25.3125 2.27502H18.75C18.75 1.77774 18.5525 1.30083 18.2008 0.949199C17.8492 0.597569 17.3723 0.400024 16.875 0.400024L13.125 0.400024C12.6277 0.400024 12.1508 0.597569 11.7992 0.949199C11.4475 1.30083 11.25 1.77774 11.25 2.27502H4.6875ZM10.3125 9.77502C10.5611 9.77502 10.7996 9.8738 10.9754 10.0496C11.1512 10.2254 11.25 10.4639 11.25 10.7125V23.8375C11.25 24.0862 11.1512 24.3246 10.9754 24.5004C10.7996 24.6763 10.5611 24.775 10.3125 24.775C10.0639 24.775 9.8254 24.6763 9.64959 24.5004C9.47377 24.3246 9.375 24.0862 9.375 23.8375V10.7125C9.375 10.4639 9.47377 10.2254 9.64959 10.0496C9.8254 9.8738 10.0639 9.77502 10.3125 9.77502ZM15 9.77502C15.2486 9.77502 15.4871 9.8738 15.6629 10.0496C15.8387 10.2254 15.9375 10.4639 15.9375 10.7125V23.8375C15.9375 24.0862 15.8387 24.3246 15.6629 24.5004C15.4871 24.6763 15.2486 24.775 15 24.775C14.7514 24.775 14.5129 24.6763 14.3371 24.5004C14.1613 24.3246 14.0625 24.0862 14.0625 23.8375V10.7125C14.0625 10.4639 14.1613 10.2254 14.3371 10.0496C14.5129 9.8738 14.7514 9.77502 15 9.77502ZM20.625 10.7125V23.8375C20.625 24.0862 20.5262 24.3246 20.3504 24.5004C20.1746 24.6763 19.9361 24.775 19.6875 24.775C19.4389 24.775 19.2004 24.6763 19.0246 24.5004C18.8488 24.3246 18.75 24.0862 18.75 23.8375V10.7125C18.75 10.4639 18.8488 10.2254 19.0246 10.0496C19.2004 9.8738 19.4389 9.77502 19.6875 9.77502C19.9361 9.77502 20.1746 9.8738 20.3504 10.0496C20.5262 10.2254 20.625 10.4639 20.625 10.7125Z" fill="#DE7047"/>
</g>
<defs>
<clipPath id="clip0_137_827">
<rect width="30" height="30" fill="white" transform="translate(0 0.400024)"/>
</clipPath>
</defs>
</svg>
