<svg width="35" height="36" viewBox="0 0 35 36" fill="none" xmlns="http://www.w3.org/2000/svg">
<path d="M17.5001 4.14584C18.0802 4.14584 18.6366 4.37631 19.0469 4.78655C19.4571 5.19678 19.6876 5.75318 19.6876 6.33334C19.6876 6.9135 19.4571 7.4699 19.0469 7.88014C18.6366 8.29038 18.0802 8.52084 17.5001 8.52084H10.2084C10.015 8.52084 9.82956 8.59767 9.69282 8.73441C9.55607 8.87116 9.47925 9.05662 9.47925 9.25001V26.75C9.47925 26.9434 9.55607 27.1289 9.69282 27.2656C9.82956 27.4024 10.015 27.4792 10.2084 27.4792H16.7709C17.3511 27.4792 17.9075 27.7096 18.3177 28.1199C18.7279 28.5301 18.9584 29.0865 18.9584 29.6667C18.9584 30.2468 18.7279 30.8032 18.3177 31.2135C17.9075 31.6237 17.3511 31.8542 16.7709 31.8542H10.2084C8.85471 31.8542 7.55644 31.3164 6.59922 30.3592C5.64201 29.402 5.10425 28.1037 5.10425 26.75V9.25001C5.10425 7.8963 5.64201 6.59804 6.59922 5.64082C7.55644 4.6836 8.85471 4.14584 10.2084 4.14584H17.5001ZM26.3376 12.3271L30.4632 16.4542C30.8729 16.8643 31.1029 17.4203 31.1029 18C31.1029 18.5797 30.8729 19.1357 30.4632 19.5458L26.339 23.6729C25.9287 24.0833 25.3721 24.3138 24.7917 24.3138C24.2114 24.3138 23.6548 24.0833 23.2445 23.6729C22.8341 23.2626 22.6035 22.706 22.6035 22.1256C22.6035 21.5453 22.8341 20.9887 23.2445 20.5783L23.6353 20.1875H17.5001C16.9199 20.1875 16.3635 19.957 15.9533 19.5468C15.543 19.1366 15.3126 18.5802 15.3126 18C15.3126 17.4198 15.543 16.8635 15.9533 16.4532C16.3635 16.043 16.9199 15.8125 17.5001 15.8125H23.6353L23.2445 15.4217C23.0414 15.2185 22.8803 14.9773 22.7704 14.7118C22.6605 14.4464 22.604 14.1619 22.6041 13.8746C22.6041 13.5873 22.6608 13.3028 22.7708 13.0374C22.8808 12.7721 23.042 12.5309 23.2452 12.3278C23.4484 12.1247 23.6896 11.9636 23.955 11.8538C24.2205 11.7439 24.505 11.6874 24.7923 11.6874C25.0796 11.6875 25.364 11.7441 25.6294 11.8542C25.8948 11.9642 26.1359 12.1254 26.339 12.3286L26.3376 12.3271Z" fill="#DE7047"/>
</svg>
