<svg width="25" height="26" viewBox="0 0 25 26" fill="none" xmlns="http://www.w3.org/2000/svg">
<path d="M13.5416 6.64982C13.5416 6.37355 13.4319 6.1086 13.2365 5.91325C13.0412 5.7179 12.7762 5.60815 12.5 5.60815C12.2237 5.60815 11.9588 5.7179 11.7634 5.91325C11.5681 6.1086 11.4583 6.37355 11.4583 6.64982V11.8582H6.24998C5.97371 11.8582 5.70876 11.9679 5.51341 12.1633C5.31806 12.3586 5.20831 12.6236 5.20831 12.8998C5.20831 13.1761 5.31806 13.441 5.51341 13.6364C5.70876 13.8317 5.97371 13.9415 6.24998 13.9415H11.4583V19.1498C11.4583 19.4261 11.5681 19.691 11.7634 19.8864C11.9588 20.0817 12.2237 20.1915 12.5 20.1915C12.7762 20.1915 13.0412 20.0817 13.2365 19.8864C13.4319 19.691 13.5416 19.4261 13.5416 19.1498V13.9415H18.75C19.0262 13.9415 19.2912 13.8317 19.4865 13.6364C19.6819 13.441 19.7916 13.1761 19.7916 12.8998C19.7916 12.6236 19.6819 12.3586 19.4865 12.1633C19.2912 11.9679 19.0262 11.8582 18.75 11.8582H13.5416V6.64982Z" fill="#DE7047" stroke="#DE7047" stroke-width="2"/>
</svg>
