<svg width="36" height="36" viewBox="0 0 36 36" fill="none" xmlns="http://www.w3.org/2000/svg">
<rect x="2.28015" y="2" width="32" height="32" rx="8.5" stroke="#DE7047" stroke-width="3"/>
<path d="M19.3219 11.75C19.3219 11.4737 19.2121 11.2088 19.0168 11.0134C18.8214 10.8181 18.5565 10.7083 18.2802 10.7083C18.0039 10.7083 17.739 10.8181 17.5436 11.0134C17.3483 11.2088 17.2385 11.4737 17.2385 11.75V16.9583H12.0302C11.7539 16.9583 11.489 17.0681 11.2936 17.2634C11.0983 17.4588 10.9885 17.7237 10.9885 18C10.9885 18.2763 11.0983 18.5412 11.2936 18.7366C11.489 18.9319 11.7539 19.0417 12.0302 19.0417H17.2385V24.25C17.2385 24.5263 17.3483 24.7912 17.5436 24.9866C17.739 25.1819 18.0039 25.2917 18.2802 25.2917C18.5565 25.2917 18.8214 25.1819 19.0168 24.9866C19.2121 24.7912 19.3219 24.5263 19.3219 24.25V19.0417H24.5302C24.8065 19.0417 25.0714 18.9319 25.2668 18.7366C25.4621 18.5412 25.5719 18.2763 25.5719 18C25.5719 17.7237 25.4621 17.4588 25.2668 17.2634C25.0714 17.0681 24.8065 16.9583 24.5302 16.9583H19.3219V11.75Z" fill="#DE7047" stroke="#DE7047" stroke-width="2"/>
</svg>
