<svg width="35" height="36" viewBox="0 0 35 36" fill="none" xmlns="http://www.w3.org/2000/svg">
<g clip-path="url(#clip0_5_80)">
<path d="M30.2123 19.9459C30.6219 19.5357 30.852 18.9797 30.852 18.4C30.852 17.8203 30.6219 17.2643 30.2123 16.8542L21.9639 8.60148C21.5536 8.19111 20.997 7.96057 20.4167 7.96057C19.8363 7.96057 19.2797 8.19111 18.8694 8.60148C18.459 9.01185 18.2285 9.56843 18.2285 10.1488C18.2285 10.7291 18.459 11.2857 18.8694 11.6961L23.3844 16.2125L6.56249 16.2125C5.98233 16.2125 5.42593 16.443 5.01569 16.8532C4.60546 17.2635 4.37499 17.8199 4.37499 18.4C4.37499 18.9802 4.60546 19.5366 5.01569 19.9468C5.42593 20.3571 5.98233 20.5875 6.56249 20.5875L23.3844 20.5875L18.8694 25.1025C18.6662 25.3057 18.505 25.5469 18.395 25.8124C18.2851 26.0779 18.2285 26.3625 18.2285 26.6498C18.2285 26.9372 18.2851 27.2217 18.395 27.4872C18.505 27.7527 18.6662 27.9939 18.8694 28.1971C19.0726 28.4003 19.3138 28.5615 19.5793 28.6714C19.8447 28.7814 20.1293 28.838 20.4167 28.838C20.704 28.838 20.9886 28.7814 21.254 28.6714C21.5195 28.5615 21.7608 28.4003 21.9639 28.1971L30.2123 19.9459Z" fill="#DE7047"/>
</g>
<defs>
<clipPath id="clip0_5_80">
<rect width="35" height="35" fill="white" transform="matrix(0 1 -1 0 35 0.900024)"/>
</clipPath>
</defs>
</svg>
