<svg width="35" height="36" viewBox="0 0 35 36" fill="none" xmlns="http://www.w3.org/2000/svg">
<path fill-rule="evenodd" clip-rule="evenodd" d="M7.65637 26.6122V28.9375C7.65637 29.2276 7.77161 29.5058 7.97672 29.7109C8.18184 29.916 8.46004 30.0312 8.75012 30.0312H24.0626C24.9329 30.0312 25.7675 29.6855 26.3828 29.0702C26.9982 28.4548 27.3439 27.6202 27.3439 26.75V25.8728C26.3461 26.4481 25.2144 26.7506 24.0626 26.75H8.75012C8.37096 26.75 8.00637 26.7041 7.65637 26.6122ZM4.37512 22.375V7.0625C4.37512 6.91229 4.38241 6.76354 4.397 6.61625C4.51029 5.51228 5.03889 4.49262 5.87575 3.76375C6.67247 3.06966 7.69347 2.68737 8.75012 2.6875H24.0626C25.8031 2.6875 27.4723 3.3789 28.703 4.60961C29.9337 5.84032 30.6251 7.50952 30.6251 9.25V26.75C30.6251 28.4905 29.9337 30.1597 28.703 31.3904C27.4723 32.6211 25.8031 33.3125 24.0626 33.3125H8.75012C7.5898 33.3125 6.477 32.8516 5.65653 32.0311C4.83606 31.2106 4.37512 30.0978 4.37512 28.9375V22.375ZM7.65637 22.375C7.65637 22.6651 7.77161 22.9433 7.97672 23.1484C8.18184 23.3535 8.46004 23.4688 8.75012 23.4688H24.0626C24.9329 23.4688 25.7675 23.123 26.3828 22.5077C26.9982 21.8923 27.3439 21.0577 27.3439 20.1875V9.25C27.3439 9.0225 27.322 8.80229 27.2782 8.58938C27.1261 7.84904 26.723 7.18393 26.1371 6.70645C25.5512 6.22897 24.8184 5.96839 24.0626 5.96875H8.75012C8.46004 5.96875 8.18184 6.08398 7.97672 6.2891C7.77161 6.49422 7.65637 6.77242 7.65637 7.0625V22.375ZM12.0314 11.9844C12.0314 11.5493 12.2042 11.132 12.5119 10.8243C12.8196 10.5166 13.2369 10.3438 13.672 10.3438H21.3282C21.7634 10.3438 22.1807 10.5166 22.4883 10.8243C22.796 11.132 22.9689 11.5493 22.9689 11.9844C22.9689 12.4195 22.796 12.8368 22.4883 13.1445C22.1807 13.4521 21.7634 13.625 21.3282 13.625H13.672C13.2369 13.625 12.8196 13.4521 12.5119 13.1445C12.2042 12.8368 12.0314 12.4195 12.0314 11.9844Z" fill="#DE7047"/>
</svg>
