<svg width="24" height="25" viewBox="0 0 24 25" fill="none" xmlns="http://www.w3.org/2000/svg">
<path d="M21.2571 11.462C21.7311 12.082 21.7311 12.919 21.2571 13.538C19.7641 15.487 16.1821 19.5 12.0001 19.5C7.81806 19.5 4.23606 15.487 2.74306 13.538C2.51211 13.2413 2.38672 12.876 2.38672 12.5C2.38672 12.124 2.51211 11.7587 2.74306 11.462C4.23606 9.513 7.81806 5.5 12.0001 5.5C16.1821 5.5 19.7641 9.513 21.2571 11.462Z" stroke="#DE7047" stroke-width="2" stroke-linecap="round" stroke-linejoin="round"/>
<path d="M12 15.5C13.6569 15.5 15 14.1569 15 12.5C15 10.8431 13.6569 9.5 12 9.5C10.3431 9.5 9 10.8431 9 12.5C9 14.1569 10.3431 15.5 12 15.5Z" stroke="#DE7047" stroke-width="2" stroke-linecap="round" stroke-linejoin="round"/>
</svg>
