<svg width="25" height="26" viewBox="0 0 25 26" fill="none" xmlns="http://www.w3.org/2000/svg">
<path d="M9.06979 20.9281L18.75 11.2479L14.1521 6.65L4.47188 16.3302C4.33848 16.4635 4.2438 16.6306 4.19792 16.8135L3.125 22.275L8.58542 21.2021C8.76875 21.1562 8.93646 21.0615 9.06979 20.9281ZM21.875 8.12291C22.2656 7.73223 22.485 7.20242 22.485 6.65C22.485 6.09757 22.2656 5.56776 21.875 5.17708L20.2229 3.525C19.8322 3.13443 19.3024 2.91502 18.75 2.91502C18.1976 2.91502 17.6678 3.13443 17.2771 3.525L15.625 5.17708L20.2229 9.775L21.875 8.12291Z" fill="#DE7047"/>
</svg>
